# xmcd
#
# Track frame offsets:
#	150
#	14923
#	31988
#	45628
#	60045
#	72470
#	88357
#	108070
#	122104
#	133853
#	148200
#	162812
#	172428
#	189595
#	200661
#	215273
#	228184
#	238308
#	251283
#	268977
#	282056
#	294679
#	303890
#	319539
#	336843
#
# Disc length: 4688 seconds
#
# Revision: 1
# Processed by: cddbd v1.5.2PL0 Copyright (c) Steve Scherf et al.
# Submitted via: audiograbber 1.83.01
#
DISCID=82124e19
DTITLE=Rene and Rene - 25 Golden Hits
DYEAR=2007
DGENRE=
TTITLE0=Lo Mucho Que Te Quiero
TTITLE1=Esta Vez (It's My Time)
TTITLE2=Amor Escondido
TTITLE3=Cuando Tu Vuelvas
TTITLE4=Please Come Home
TTITLE5=Cuando Vuelvo A Mexico
TTITLE6=Quiere Dormir
TTITLE7=Vamonos A Cozumel
TTITLE8=I Only Have Eyes For You
TTITLE9=Ando Neclo Por Tu Amor
TTITLE10=Llorar
TTITLE11=El Aguila Va A Volar
TTITLE12=Hoy Amaneci Pensando A Ti
TTITLE13=Chantilly Lace
TTITLE14=Acuerdate De Mi
TTITLE15=Hay Carino En Este Amor
TTITLE16=Pico De Gallo
TTITLE17=Baby Doll
TTITLE18=Love Is The Answer (Un Paraiso)
TTITLE19=Angelite
TTITLE20=Tequila
TTITLE21=Little Bitty Pretty One
TTITLE22=Blenvenide Amor
TTITLE23=Lets Turn Out The Lights
TTITLE24=This Is America
EXTD=
EXTT0=Their only US Hit - Peaked at #14 in 1969
EXTT1=
EXTT2=
EXTT3=
EXTT4=
EXTT5=
EXTT6=
EXTT7=
EXTT8=
EXTT9=
EXTT10=
EXTT11=
EXTT12=
EXTT13=
EXTT14=
EXTT15=
EXTT16=
EXTT17=
EXTT18=
EXTT19=
EXTT20=
EXTT21=
EXTT22=
EXTT23=
EXTT24=
PLAYORDER=
